<svg version="1.1" id="Layer_1" xmlns="http://www.w3.org/2000/svg" xmlns:xlink="http://www.w3.org/1999/xlink" x="0px" y="0px"
	 width="100%" viewBox="0 0 249 236" enable-background="new 0 0 249 236" xml:space="preserve">
<path fill="#000103" opacity="1.000000" stroke="none" 
	d="
M146.000000,237.000000 
	C97.333336,237.000000 49.166672,237.000000 1.000006,237.000000 
	C1.000004,158.333344 1.000004,79.666679 1.000002,1.000017 
	C83.999992,1.000011 166.999985,1.000011 249.999969,1.000006 
	C249.999985,79.666649 249.999985,158.333298 250.000000,236.999969 
	C215.500000,237.000000 181.000000,237.000000 146.000000,237.000000 
M16.488110,119.560532 
	C16.667419,122.229034 16.846731,124.897545 16.951290,127.552094 
	C16.951290,127.552094 16.957945,127.476334 16.577105,128.417526 
	C16.542879,151.241425 16.260332,174.069809 16.672663,196.885635 
	C16.760824,201.764008 18.487831,207.122635 21.002203,211.340622 
	C26.165627,220.002518 34.707935,222.431839 44.565704,222.397430 
	C96.047913,222.217712 147.531082,222.318436 199.013916,222.306793 
	C203.677795,222.305740 208.377487,222.529602 212.993225,222.028687 
	C216.198959,221.680786 219.549149,220.755798 222.383575,219.243118 
	C231.848633,214.191879 235.720673,205.804184 235.712021,195.321976 
	C235.692642,171.833054 235.720184,148.344116 235.804382,124.165627 
	C235.778122,123.247147 235.751877,122.328659 235.831070,120.426003 
	C235.789764,118.429146 235.713272,116.432297 235.712524,114.435425 
	C235.703537,90.453369 235.791550,66.470901 235.674850,42.489414 
	C235.597183,26.528811 225.729553,15.849445 210.344925,15.800568 
	C154.054764,15.621727 97.763329,15.630971 41.473137,15.808690 
	C26.954407,15.854528 16.890219,25.608910 16.647745,40.180962 
	C16.221109,65.820686 16.488512,91.472008 16.491158,117.118477 
	C16.491224,117.756004 16.793699,118.393501 17.018003,118.997673 
	C17.018003,118.997673 16.985565,118.934334 16.488110,119.560532 
z"/>
<path fill="#153CFE" opacity="1.000000" stroke="none" 
	d="
M16.955135,119.031013 
	C16.793699,118.393501 16.491224,117.756004 16.491158,117.118477 
	C16.488512,91.472008 16.221109,65.820686 16.647745,40.180962 
	C16.890219,25.608910 26.954407,15.854528 41.473137,15.808690 
	C97.763329,15.630971 154.054764,15.621727 210.344925,15.800568 
	C225.729553,15.849445 235.597183,26.528811 235.674850,42.489414 
	C235.791550,66.470901 235.703537,90.453369 235.712524,114.435425 
	C235.713272,116.432297 235.789764,118.429146 235.550095,120.645187 
	C232.611008,118.015999 230.399658,114.447853 227.204529,112.464684 
	C219.889145,107.924141 217.098206,102.058907 217.650879,93.393051 
	C218.262543,83.802185 218.162827,74.021927 216.989471,64.494537 
	C215.167908,49.704010 201.573837,40.577454 186.701340,43.333832 
	C186.701340,48.721645 186.701340,54.160305 186.701340,59.570274 
	C199.137238,61.822655 199.930206,62.792404 199.934250,75.523163 
	C199.937012,84.183144 199.902023,92.843506 199.971664,101.502991 
	C200.021744,107.729240 202.239395,113.199440 206.165298,117.988541 
	C207.921509,120.130875 209.744415,122.218529 211.799103,124.639801 
	C201.247696,131.762589 199.138763,142.758316 199.859314,155.044601 
	C200.268112,162.015198 200.016052,169.030899 199.904785,176.023804 
	C199.805740,182.247742 196.551605,185.563614 190.440582,185.982895 
	C189.291428,186.061752 188.140900,186.120651 186.720001,186.204819 
	C186.720001,192.091904 186.720001,197.840164 186.720001,203.556778 
	C203.490402,205.748978 217.295105,193.813736 217.787796,176.749756 
	C218.008804,169.095215 218.356110,161.384293 217.697861,153.781036 
	C217.020477,145.957031 219.792908,140.512924 225.784378,135.739502 
	C229.580276,132.715302 232.445816,128.523392 235.728622,124.855179 
	C235.720184,148.344116 235.692642,171.833054 235.712021,195.321976 
	C235.720673,205.804184 231.848633,214.191879 222.383575,219.243118 
	C219.549149,220.755798 216.198959,221.680786 212.993225,222.028687 
	C208.377487,222.529602 203.677795,222.305740 199.013916,222.306793 
	C147.531082,222.318436 96.047913,222.217712 44.565704,222.397430 
	C34.707935,222.431839 26.165627,220.002518 21.002203,211.340622 
	C18.487831,207.122635 16.760824,201.764008 16.672663,196.885635 
	C16.260332,174.069809 16.542879,151.241425 17.099220,128.092987 
	C20.512081,130.523041 23.159641,133.606644 26.345793,135.961533 
	C32.389927,140.428787 34.885056,145.947250 34.284393,153.562744 
	C33.670418,161.347061 33.962112,169.224686 34.208149,177.050430 
	C34.742397,194.043442 49.551189,206.548233 65.536407,203.292969 
	C65.536407,200.567780 65.536407,197.757462 65.536407,194.947144 
	C65.536407,192.034821 65.536407,189.122498 65.536407,186.311722 
	C53.866749,185.390259 52.062721,183.401642 52.059917,172.280350 
	C52.057819,163.947052 52.713169,155.542496 51.822105,147.305298 
	C51.220413,141.743134 48.863091,136.219101 46.463184,131.063385 
	C45.144051,128.229507 42.111034,126.193398 39.578159,123.508652 
	C50.171005,116.314865 52.753521,105.992821 52.138927,94.122787 
	C51.725819,86.144257 51.991016,78.126038 52.087349,70.127197 
	C52.158623,64.208870 55.299175,60.851089 61.105843,60.191780 
	C62.408405,60.043884 63.722122,59.994240 65.136879,59.891674 
	C65.136879,54.149399 65.136879,48.611378 65.136879,43.152431 
	C46.372559,39.887653 33.516068,55.445309 34.082390,70.186684 
	C34.427635,79.173409 33.903210,88.193199 34.236015,97.180862 
	C34.441383,102.726868 32.729191,106.695679 28.067993,109.854225 
	C24.108847,112.537041 20.640591,115.944298 16.955135,119.031013 
M91.042755,155.905029 
	C80.752045,158.188904 72.157234,154.499161 64.022438,147.813843 
	C62.050575,152.486343 60.218952,156.826569 58.184181,161.648148 
	C74.671539,168.765274 90.700935,172.489197 106.614113,163.075058 
	C123.771423,152.924911 123.403946,129.205673 106.387535,118.957481 
	C103.114044,116.986000 99.712837,115.224167 96.347740,113.407875 
	C92.549583,111.357841 88.501114,109.682404 84.966698,107.254250 
	C79.929153,103.793434 78.275528,99.002213 79.753029,94.336075 
	C81.182991,89.820091 85.599541,86.487434 91.575867,87.130455 
	C97.638313,87.782738 103.550117,89.835258 110.318428,91.464867 
	C112.104126,89.216103 114.724472,85.916245 117.360298,82.596886 
	C107.375061,75.560921 93.103783,73.306519 80.994881,76.561073 
	C69.058815,79.769173 62.852741,86.456032 61.384735,97.690399 
	C60.039062,107.988571 64.505241,116.212738 75.006668,122.091949 
	C80.804344,125.337776 86.917236,128.020493 92.715576,131.265228 
	C97.760857,134.088562 101.311485,138.126495 100.982574,144.450348 
	C100.671028,150.440384 96.938789,153.640991 91.042755,155.905029 
M149.463211,156.452759 
	C149.463211,159.889008 149.463211,163.325272 149.463211,166.659485 
	C155.740646,166.659485 161.320114,166.659485 167.334244,166.659485 
	C167.334244,140.558487 167.334244,114.807938 167.334244,88.646347 
	C175.885818,88.646347 183.989456,88.646347 192.333771,88.646347 
	C192.333771,84.502106 192.333771,80.778374 192.333771,76.853897 
	C169.612991,76.853897 147.208237,76.853897 124.647232,76.853897 
	C124.647232,80.893883 124.647232,84.623138 124.647232,88.932190 
	C133.044266,88.932190 141.115082,88.932190 149.463272,88.932190 
	C149.463272,111.498367 149.463272,133.481598 149.463211,156.452759 
z"/>
<path fill="#E8E9ED" opacity="1.000000" stroke="none" 
	d="
M235.766510,124.510406 
	C232.445816,128.523392 229.580276,132.715302 225.784378,135.739502 
	C219.792908,140.512924 217.020477,145.957031 217.697861,153.781036 
	C218.356110,161.384293 218.008804,169.095215 217.787796,176.749756 
	C217.295105,193.813736 203.490402,205.748978 186.720001,203.556778 
	C186.720001,197.840164 186.720001,192.091904 186.720001,186.204819 
	C188.140900,186.120651 189.291428,186.061752 190.440582,185.982895 
	C196.551605,185.563614 199.805740,182.247742 199.904785,176.023804 
	C200.016052,169.030899 200.268112,162.015198 199.859314,155.044601 
	C199.138763,142.758316 201.247696,131.762589 211.799103,124.639801 
	C209.744415,122.218529 207.921509,120.130875 206.165298,117.988541 
	C202.239395,113.199440 200.021744,107.729240 199.971664,101.502991 
	C199.902023,92.843506 199.937012,84.183144 199.934250,75.523163 
	C199.930206,62.792404 199.137238,61.822655 186.701340,59.570274 
	C186.701340,54.160305 186.701340,48.721645 186.701340,43.333832 
	C201.573837,40.577454 215.167908,49.704010 216.989471,64.494537 
	C218.162827,74.021927 218.262543,83.802185 217.650879,93.393051 
	C217.098206,102.058907 219.889145,107.924141 227.204529,112.464684 
	C230.399658,114.447853 232.611008,118.015999 235.497375,121.137276 
	C235.751877,122.328659 235.778122,123.247147 235.766510,124.510406 
z"/>
<path fill="#E8E9ED" opacity="1.000000" stroke="none" 
	d="
M16.986568,119.014343 
	C20.640591,115.944298 24.108847,112.537041 28.067993,109.854225 
	C32.729191,106.695679 34.441383,102.726868 34.236015,97.180862 
	C33.903210,88.193199 34.427635,79.173409 34.082390,70.186684 
	C33.516068,55.445309 46.372559,39.887653 65.136879,43.152431 
	C65.136879,48.611378 65.136879,54.149399 65.136879,59.891674 
	C63.722122,59.994240 62.408405,60.043884 61.105843,60.191780 
	C55.299175,60.851089 52.158623,64.208870 52.087349,70.127197 
	C51.991016,78.126038 51.725819,86.144257 52.138927,94.122787 
	C52.753521,105.992821 50.171005,116.314865 39.578159,123.508652 
	C42.111034,126.193398 45.144051,128.229507 46.463184,131.063385 
	C48.863091,136.219101 51.220413,141.743134 51.822105,147.305298 
	C52.713169,155.542496 52.057819,163.947052 52.059917,172.280350 
	C52.062721,183.401642 53.866749,185.390259 65.536407,186.311722 
	C65.536407,189.122498 65.536407,192.034821 65.536407,194.947144 
	C65.536407,197.757462 65.536407,200.567780 65.536407,203.292969 
	C49.551189,206.548233 34.742397,194.043442 34.208149,177.050430 
	C33.962112,169.224686 33.670418,161.347061 34.284393,153.562744 
	C34.885056,145.947250 32.389927,140.428787 26.345793,135.961533 
	C23.159641,133.606644 20.512081,130.523041 17.289640,127.622398 
	C16.957945,127.476334 16.951290,127.552094 16.996370,127.071411 
	C17.022823,124.038605 17.004194,121.486465 16.985565,118.934334 
	C16.985565,118.934334 17.018003,118.997673 16.986568,119.014343 
z"/>
<path fill="#153CFE" opacity="1.000000" stroke="none" 
	d="
M16.736837,119.247437 
	C17.004194,121.486465 17.022823,124.038605 17.033747,127.078392 
	C16.846731,124.897545 16.667419,122.229034 16.736837,119.247437 
z"/>
<path fill="#FBFCFF" opacity="1.000000" stroke="none" 
	d="
M91.421402,155.797531 
	C96.938789,153.640991 100.671028,150.440384 100.982574,144.450348 
	C101.311485,138.126495 97.760857,134.088562 92.715576,131.265228 
	C86.917236,128.020493 80.804344,125.337776 75.006668,122.091949 
	C64.505241,116.212738 60.039062,107.988571 61.384735,97.690399 
	C62.852741,86.456032 69.058815,79.769173 80.994881,76.561073 
	C93.103783,73.306519 107.375061,75.560921 117.360298,82.596886 
	C114.724472,85.916245 112.104126,89.216103 110.318428,91.464867 
	C103.550117,89.835258 97.638313,87.782738 91.575867,87.130455 
	C85.599541,86.487434 81.182991,89.820091 79.753029,94.336075 
	C78.275528,99.002213 79.929153,103.793434 84.966698,107.254250 
	C88.501114,109.682404 92.549583,111.357841 96.347740,113.407875 
	C99.712837,115.224167 103.114044,116.986000 106.387535,118.957481 
	C123.403946,129.205673 123.771423,152.924911 106.614113,163.075058 
	C90.700935,172.489197 74.671539,168.765274 58.184181,161.648148 
	C60.218952,156.826569 62.050575,152.486343 64.022438,147.813843 
	C72.157234,154.499161 80.752045,158.188904 91.421402,155.797531 
z"/>
<path fill="#F8FAFF" opacity="1.000000" stroke="none" 
	d="
M149.463242,155.958801 
	C149.463272,133.481598 149.463272,111.498367 149.463272,88.932190 
	C141.115082,88.932190 133.044266,88.932190 124.647232,88.932190 
	C124.647232,84.623138 124.647232,80.893883 124.647232,76.853897 
	C147.208237,76.853897 169.612991,76.853897 192.333771,76.853897 
	C192.333771,80.778374 192.333771,84.502106 192.333771,88.646347 
	C183.989456,88.646347 175.885818,88.646347 167.334244,88.646347 
	C167.334244,114.807938 167.334244,140.558487 167.334244,166.659485 
	C161.320114,166.659485 155.740646,166.659485 149.463211,166.659485 
	C149.463211,163.325272 149.463211,159.889008 149.463242,155.958801 
z"/>
</svg>