<?xml version="1.0" standalone="no"?>
<!DOCTYPE svg PUBLIC "-//W3C//DTD SVG 20010904//EN"
 "http://www.w3.org/TR/2001/REC-SVG-20010904/DTD/svg10.dtd">
<svg version="1.0" xmlns="http://www.w3.org/2000/svg"
 width="249.000000pt" height="236.000000pt" viewBox="0 0 249.000000 236.000000"
 preserveAspectRatio="xMidYMid meet">
<metadata>
Created by potrace 1.16, written by Peter Selinger 2001-2019
</metadata>
<g transform="translate(0.000000,236.000000) scale(0.100000,-0.100000)"
fill="#000000" stroke="none">
<path d="M327 2206 c-82 -30 -144 -93 -166 -171 -9 -29 -11 -262 -9 -875 3
-780 4 -837 21 -871 24 -47 71 -95 121 -122 l41 -22 915 0 915 0 40 21 c56 30
94 71 121 129 24 50 24 51 23 440 0 215 -3 383 -6 375 -3 -8 -43 -51 -89 -95
l-84 -80 0 -181 c0 -215 -11 -263 -73 -331 -54 -58 -107 -84 -184 -91 l-63 -5
0 90 0 90 46 6 c29 3 54 13 68 26 20 20 21 34 26 229 6 234 11 253 80 322 l41
41 -38 38 c-72 69 -77 90 -83 326 -3 139 -9 217 -17 231 -13 23 -61 44 -99 44
-23 0 -24 2 -24 85 l0 85 63 0 c79 0 129 -23 184 -83 63 -68 73 -115 73 -334
0 -102 4 -193 10 -203 5 -10 40 -41 78 -69 38 -28 74 -61 80 -73 8 -17 10 88
9 417 -2 401 -4 443 -20 476 -24 47 -71 95 -121 122 l-41 22 -900 2 c-738 2
-907 0 -938 -11z m323 -351 c0 -83 -1 -85 -24 -85 -43 0 -86 -22 -101 -51 -12
-22 -15 -71 -15 -221 0 -220 -8 -249 -82 -324 l-40 -42 42 -42 c69 -69 74 -88
80 -322 5 -195 6 -209 26 -229 14 -13 39 -23 68 -26 l46 -6 0 -88 0 -89 -52 0
c-94 1 -186 57 -234 142 -29 53 -29 54 -34 262 l-5 208 -83 77 c-81 75 -83 77
-82 123 0 47 0 47 80 108 46 35 82 70 85 83 2 12 6 112 7 222 3 225 8 243 85
317 51 50 96 67 171 68 l62 0 0 -85z m425 -263 c92 -34 96 -42 50 -99 -21 -26
-40 -50 -41 -52 -2 -2 -15 6 -31 17 -58 41 -148 53 -209 27 -66 -27 -78 -121
-22 -172 13 -11 73 -46 133 -77 144 -75 168 -95 201 -161 24 -49 26 -64 22
-129 -4 -56 -11 -85 -32 -120 -62 -107 -203 -158 -368 -136 -85 12 -179 42
-196 63 -6 8 0 33 19 75 l29 64 29 -21 c91 -65 217 -82 282 -38 18 12 40 34
47 47 16 32 9 96 -16 129 -10 14 -76 56 -147 94 -142 74 -168 94 -196 149 -60
116 -15 268 95 325 91 48 242 54 351 15z m843 -49 l3 -63 -131 0 -130 0 0
-390 0 -390 -90 0 -90 0 0 390 0 390 -125 0 -125 0 0 58 c0 32 3 62 7 65 4 4
158 6 342 5 l336 -3 3 -62z"/>
</g>
</svg>
